<svg version="1.1" id="Layer_1" xmlns="http://www.w3.org/2000/svg" xmlns:xlink="http://www.w3.org/1999/xlink" x="0px" y="0px"
	 width="100%" viewBox="0 0 1667 1668" enable-background="new 0 0 1667 1668" xml:space="preserve">
<path fill="#1A294A" opacity="1.000000" stroke="none" 
	d="
M1668.000000,2.000000 
	C1668.000000,557.034912 1668.000000,1112.069824 1667.552368,1667.552368 
	C1114.088867,1668.000000 561.073059,1668.000000 8.057213,1667.993530 
	C6.061499,1667.993530 4.065786,1667.895752 2.044156,1667.395264 
	C2.011313,1113.685303 2.004167,560.423828 2.009353,7.162457 
	C2.009368,5.564565 2.189991,3.966675 2.308474,2.000000 
	C557.863220,2.000000 1112.931641,2.000000 1668.000000,2.000000 
M879.174377,807.146606 
	C877.412903,796.495605 876.456909,785.632263 873.716980,775.239258 
	C868.526184,755.550049 858.781677,738.596313 840.562988,727.831116 
	C826.609924,719.586365 811.314941,717.505676 795.393311,717.780090 
	C765.981873,718.286926 741.718750,728.084778 726.344421,755.286133 
	C712.269775,729.969482 689.875732,719.388916 662.138611,717.788940 
	C633.475525,716.135559 612.468933,729.158630 595.466003,751.453674 
	C595.466003,741.924927 595.466003,732.396179 595.466003,722.853577 
	C572.964050,722.853577 551.084839,722.853577 529.373291,722.853577 
	C529.373291,799.120117 529.373291,875.017273 529.373291,950.760986 
	C551.529785,950.760986 573.308899,950.760986 595.512451,950.760986 
	C595.512451,948.719788 595.512390,946.916565 595.512451,945.113342 
	C595.513367,906.614441 595.459351,868.115479 595.548523,829.616760 
	C595.575562,817.940796 596.382690,806.331238 600.771362,795.283386 
	C607.174988,779.163086 617.880859,772.362976 636.209717,772.842590 
	C650.853577,773.225952 662.562195,781.644043 666.766235,797.044922 
	C669.577148,807.342224 671.145264,818.275513 671.288818,828.950867 
	C671.808655,867.609375 671.491699,906.279236 671.490540,944.944763 
	C671.490479,946.886108 671.490540,948.827515 671.490540,950.825928 
	C693.750610,950.825928 715.379150,950.825928 737.514465,950.825928 
	C737.514465,948.690125 737.514465,946.726624 737.514465,944.763123 
	C737.514709,906.264221 737.437317,867.765076 737.586487,829.266785 
	C737.613464,822.303650 738.131042,815.276001 739.199829,808.398987 
	C740.803894,798.078064 744.064880,788.227295 752.124268,780.950134 
	C769.706909,765.073730 798.710632,771.925964 807.912842,794.015381 
	C812.618958,805.312317 813.426208,817.274597 813.455139,829.286255 
	C813.547974,867.784973 813.487671,906.283936 813.486511,944.782837 
	C813.486450,946.744812 813.486511,948.706787 813.486511,950.719116 
	C835.909668,950.719116 857.816895,950.719116 880.002075,950.719116 
	C880.002075,949.297363 880.002075,948.157532 880.002075,947.017639 
	C880.002014,905.352173 880.026489,863.686707 879.967590,822.021362 
	C879.960999,817.370239 879.481140,812.719788 879.174377,807.146606 
M909.125305,771.634277 
	C888.221008,815.142090 887.750977,858.904968 910.292358,901.577332 
	C928.650940,936.331238 959.386658,953.335938 998.285400,955.827332 
	C1024.894897,957.531677 1048.346436,950.347534 1066.967651,930.390686 
	C1070.274902,926.846252 1073.276123,923.016113 1077.169678,918.433899 
	C1077.169678,929.990295 1077.169678,940.385986 1077.169678,950.851562 
	C1099.397949,950.851562 1121.188354,950.851562 1143.240723,950.851562 
	C1143.240723,874.804871 1143.240723,798.908997 1143.240723,722.770142 
	C1121.062988,722.770142 1099.159302,722.770142 1076.770508,722.770142 
	C1076.770508,732.745789 1076.770508,742.444580 1076.770508,752.982117 
	C1067.603394,741.592896 1057.202026,733.252502 1044.998291,727.087891 
	C1006.450562,707.616089 938.949951,715.934326 909.125305,771.634277 
M1379.792725,777.082092 
	C1381.160522,776.481140 1382.484131,775.736328 1383.902710,775.300903 
	C1405.469116,768.680908 1430.665771,773.344238 1438.727783,803.027222 
	C1440.457520,809.395203 1441.650635,816.124084 1441.701782,822.697510 
	C1442.020386,863.684082 1441.944336,904.673828 1441.998535,945.662476 
	C1442.000854,947.408691 1441.998901,949.154968 1441.998901,950.774597 
	C1464.512451,950.774597 1486.290161,950.774597 1508.281128,950.774597 
	C1508.367920,949.592834 1508.501709,948.620300 1508.501953,947.647766 
	C1508.510620,905.657715 1508.638672,863.667053 1508.440063,821.677917 
	C1508.362793,805.329468 1506.483765,789.136292 1501.872803,773.350464 
	C1491.834717,738.985107 1467.851807,719.471191 1434.022461,717.853577 
	C1410.404053,716.724121 1388.591797,721.213379 1370.500000,737.537354 
	C1365.632324,741.929382 1361.351440,746.971863 1356.276367,752.262939 
	C1356.276367,742.123840 1356.276367,732.562866 1356.276367,722.820068 
	C1333.912598,722.820068 1312.024780,722.820068 1290.180420,722.820068 
	C1290.180420,799.029968 1290.180420,874.907043 1290.180420,950.753052 
	C1312.289795,950.753052 1334.049561,950.753052 1356.170166,950.753052 
	C1356.170166,948.713501 1356.170166,946.917847 1356.170166,945.122192 
	C1356.169678,908.297546 1356.131104,871.472900 1356.205933,834.648376 
	C1356.218506,828.502075 1356.312500,822.304688 1357.082886,816.221313 
	C1359.093750,800.340271 1364.298828,786.106934 1379.792725,777.082092 
M1250.001221,939.481689 
	C1250.001221,867.118713 1250.001221,794.755798 1250.001221,722.437378 
	C1227.351074,722.437378 1205.435669,722.437378 1183.315430,722.437378 
	C1183.315430,798.709900 1183.315430,874.708374 1183.315430,950.700073 
	C1205.654297,950.700073 1227.706787,950.700073 1250.001221,950.700073 
	C1250.001221,947.093262 1250.001221,943.784119 1250.001221,939.481689 
M209.409241,1012.275574 
	C212.845352,1012.848267 216.264252,1013.766418 219.720322,1013.938721 
	C245.830261,1015.239990 269.059448,993.317261 266.134521,964.280029 
	C264.433136,947.388977 252.102859,932.060791 234.790588,926.554016 
	C219.050156,921.547241 198.835083,927.088989 188.618744,939.211670 
	C166.883392,965.002747 176.779099,1001.017273 209.409241,1012.275574 
M284.422333,755.183594 
	C291.288239,759.309570 298.629578,761.353882 306.735626,761.210388 
	C322.951111,760.923218 337.214874,751.394104 343.305145,736.348938 
	C349.502960,721.038208 345.905060,703.421448 334.262970,692.075317 
	C322.693573,680.800049 304.838135,677.393616 290.299194,683.798279 
	C276.589722,689.837524 268.142670,700.297791 266.138367,715.105774 
	C263.890167,731.715637 270.002777,745.092102 284.422333,755.183594 
M1230.632324,697.306152 
	C1233.992310,695.885437 1237.549927,694.805603 1240.680664,692.989563 
	C1263.125244,679.970154 1266.285767,651.325684 1247.194702,634.898865 
	C1231.132812,621.078430 1206.170410,620.495850 1189.459717,633.551331 
	C1171.889282,647.278503 1170.312012,671.355835 1186.322510,686.857727 
	C1198.625000,698.769348 1213.545166,701.327271 1230.632324,697.306152 
M268.440613,1026.742676 
	C248.676849,1030.514038 234.607803,1049.039917 238.019012,1070.707397 
	C241.127731,1090.453613 259.810211,1104.544800 280.627594,1101.871338 
	C300.313629,1099.343384 314.596985,1082.889404 313.744019,1062.674927 
	C312.754333,1039.219727 292.632416,1023.300964 268.440613,1026.742676 
M235.279419,853.515503 
	C229.018936,832.221680 210.829330,820.830872 189.867844,825.077820 
	C169.356476,829.233521 156.280029,850.471008 161.191910,871.650391 
	C165.848862,891.730469 187.690796,904.717224 207.570740,899.226135 
	C227.977402,893.589661 238.872772,876.101379 235.279419,853.515503 
M377.694153,651.933044 
	C377.991638,650.807739 378.338684,649.692993 378.579102,648.555603 
	C381.899078,632.851929 374.039398,616.775940 359.671326,609.852356 
	C345.343445,602.948303 327.525879,606.467957 317.871460,618.199768 
	C308.015900,630.176025 306.381104,643.338684 312.944244,657.307922 
	C318.532715,669.202515 332.800476,677.576599 345.478302,676.538696 
	C361.024628,675.265930 371.911377,667.532654 377.694153,651.933044 
M273.969971,778.390991 
	C260.352417,788.082153 254.947540,802.938660 259.519135,818.112488 
	C263.804474,832.336121 276.931152,842.483337 291.697479,842.986938 
	C306.645264,843.496826 320.502319,834.465820 325.801392,820.760620 
	C331.211823,806.767395 327.307312,791.088928 315.962616,781.253418 
	C304.512909,771.326782 288.482880,770.072693 273.969971,778.390991 
M374.597809,1171.069214 
	C382.707977,1162.001465 385.504730,1151.552246 382.883331,1139.636597 
	C379.994781,1126.506470 368.461670,1115.344482 354.610992,1113.322632 
	C340.396301,1111.247681 328.471588,1116.078491 320.266541,1127.922607 
	C310.126221,1142.560669 312.857910,1163.344849 325.611847,1173.721924 
	C341.342407,1186.520874 359.976105,1185.697144 374.597809,1171.069214 
M168.822540,733.436035 
	C161.338409,747.001648 161.614471,760.498230 170.839523,772.874451 
	C179.319611,784.251343 191.369537,788.365906 205.353790,785.869019 
	C219.645950,783.317200 231.069397,771.210022 232.924576,757.135254 
	C234.943771,741.816162 227.664566,727.573364 214.550644,720.775085 
	C200.140213,713.304688 179.856186,716.490295 168.822540,733.436035 
M1320.365967,1070.060547 
	C1320.635620,1068.325928 1321.130249,1066.592529 1321.138916,1064.856689 
	C1321.204590,1051.789917 1321.174805,1038.722900 1321.174805,1024.387085 
	C1322.903320,1026.532104 1323.845825,1027.604736 1324.682129,1028.754517 
	C1334.082642,1041.676270 1343.440063,1054.629639 1352.898560,1067.508667 
	C1353.798096,1068.733521 1355.229248,1070.228760 1356.541382,1070.364502 
	C1360.280029,1070.751221 1364.084839,1070.500244 1367.987549,1070.500244 
	C1367.987549,1044.601196 1367.987549,1019.308899 1367.987549,993.864502 
	C1362.260986,993.864502 1356.727295,993.864502 1350.674438,993.864502 
	C1350.674438,1008.881714 1350.674438,1023.520691 1350.674438,1039.073120 
	C1339.955566,1024.355591 1329.896240,1010.475281 1319.720093,996.681091 
	C1318.734863,995.345642 1317.110840,993.809875 1315.635864,993.639038 
	C1311.893921,993.205566 1308.068115,993.495117 1304.247559,993.495117 
	C1304.247559,1019.299622 1304.247559,1044.560059 1304.247559,1070.156738 
	C1309.458252,1070.156738 1314.422485,1070.156738 1320.365967,1070.060547 
M655.055786,993.503540 
	C644.467041,993.503540 633.878296,993.503540 623.203613,993.503540 
	C623.203613,1019.201721 623.203613,1044.627075 623.203613,1069.887939 
	C636.530029,1069.887939 649.698364,1070.622925 662.736938,1069.638916 
	C671.987915,1068.940796 679.441040,1063.766968 681.915405,1053.964722 
	C684.496948,1043.738159 679.600098,1035.650513 668.049316,1030.457153 
	C669.248108,1029.659058 670.352905,1028.954468 671.425964,1028.204346 
	C679.399170,1022.631287 681.550415,1012.631226 676.327148,1004.426025 
	C671.621582,997.034058 664.238403,994.408142 655.055786,993.503540 
M431.467133,567.175171 
	C428.086639,547.917419 411.333160,535.789001 393.180511,539.458069 
	C375.798767,542.971313 364.414337,559.135193 367.165527,576.394714 
	C369.888184,593.475159 385.872925,605.772888 402.733795,603.758972 
	C420.638367,601.620300 433.094971,586.212402 431.467133,567.175171 
M326.182922,913.569031 
	C333.868042,899.020386 331.272278,883.478638 319.371246,872.785095 
	C308.513947,863.029480 291.513428,862.236755 279.203339,870.911865 
	C267.034027,879.487854 262.306152,895.342529 268.055481,909.534180 
	C272.927643,921.560730 282.301178,928.401794 295.003540,929.595764 
	C308.124969,930.829285 318.635498,925.513428 326.182922,913.569031 
M856.270874,1043.190063 
	C860.837708,1042.175903 863.125549,1044.519043 865.036499,1048.402344 
	C868.188599,1054.807983 871.759827,1061.015869 875.368164,1067.181885 
	C876.175476,1068.561523 877.806396,1070.277100 879.161987,1070.373169 
	C884.404846,1070.744751 889.689636,1070.524170 895.733276,1070.524170 
	C889.675720,1060.724854 884.066284,1051.650391 878.325500,1042.363647 
	C879.886597,1041.514648 880.880737,1040.963501 881.884216,1040.429932 
	C891.808472,1035.152954 896.358093,1024.472534 893.862854,1012.301575 
	C891.674500,1001.627563 883.252136,994.203918 872.145874,993.543335 
	C866.833557,993.227417 861.487915,993.465271 856.157410,993.461243 
	C849.390259,993.456116 842.623108,993.460022 835.875977,993.460022 
	C835.875977,1019.523560 835.875977,1044.892700 835.875977,1070.197754 
	C841.726868,1070.197754 847.157898,1070.197754 852.857544,1070.197754 
	C852.857544,1062.206543 852.748413,1054.552124 852.965942,1046.906860 
	C853.001831,1045.648438 854.470764,1044.430664 856.270874,1043.190063 
M747.351013,1070.398071 
	C746.865906,1068.992798 746.616699,1067.442505 745.857117,1066.205811 
	C741.008728,1058.311157 736.047913,1050.485596 731.058105,1042.532349 
	C732.053223,1041.863281 732.562439,1041.443970 733.135132,1041.147217 
	C744.600464,1035.206177 749.461304,1024.526001 746.381287,1012.007507 
	C743.415283,999.952087 734.986755,993.512634 722.038757,993.470337 
	C712.382080,993.438782 702.725342,993.452393 693.068604,993.476013 
	C691.487549,993.479858 689.906799,993.639587 688.413269,993.722473 
	C688.413269,1019.554749 688.413269,1044.794678 688.413269,1070.111328 
	C694.227661,1070.111328 699.762878,1070.111328 705.783630,1070.111328 
	C705.783630,1060.938965 705.783630,1052.182739 705.783630,1043.696655 
	C712.369385,1041.826172 716.454468,1043.818604 718.588074,1049.916992 
	C719.345093,1052.080688 721.144348,1053.892090 721.833252,1056.065430 
	C725.743713,1068.400635 733.915710,1073.205444 747.351013,1070.398071 
M1277.087158,1019.273438 
	C1275.593506,1015.400818 1274.179932,1011.494873 1272.585815,1007.664001 
	C1270.621216,1002.942993 1269.708008,996.304871 1266.131836,994.133850 
	C1262.247803,991.776123 1255.826050,993.599060 1250.088989,993.599060 
	C1240.310059,1018.966492 1230.497192,1044.421631 1220.433228,1070.528442 
	C1226.275757,1070.528442 1231.243896,1070.713989 1236.178589,1070.390503 
	C1237.327148,1070.315186 1238.771362,1068.707031 1239.372559,1067.462646 
	C1241.092651,1063.903076 1241.481201,1058.636963 1244.208496,1056.912354 
	C1247.219971,1055.007935 1252.244263,1056.277100 1256.392456,1056.185303 
	C1257.890503,1056.152222 1259.436768,1056.421265 1260.880981,1056.140747 
	C1270.359619,1054.300537 1276.335571,1057.456055 1278.025757,1067.491577 
	C1278.220093,1068.645386 1280.023071,1070.316284 1281.164307,1070.387085 
	C1286.254639,1070.702637 1291.375732,1070.524170 1297.175171,1070.524170 
	C1290.411377,1053.255493 1283.896729,1036.622925 1277.087158,1019.273438 
M1056.714111,1043.703735 
	C1051.673218,1030.887085 1046.615356,1018.077087 1041.596558,1005.251831 
	C1036.945068,993.364990 1036.960815,993.535522 1024.333618,993.355408 
	C1020.768555,993.304565 1019.505737,994.683594 1018.364990,997.688354 
	C1009.647827,1020.649292 1000.770020,1043.549194 991.961182,1066.475342 
	C991.517151,1067.630981 991.248718,1068.854126 990.758972,1070.521118 
	C996.132690,1070.521118 1000.942932,1070.695801 1005.724121,1070.399658 
	C1006.934265,1070.324585 1008.933105,1068.870728 1009.076050,1067.842773 
	C1010.638184,1056.608643 1017.846924,1054.618530 1027.431885,1056.159058 
	C1028.405640,1056.315552 1029.453613,1056.331299 1030.420898,1056.156616 
	C1039.879395,1054.449585 1046.334717,1057.150391 1048.018311,1067.577026 
	C1048.199829,1068.700684 1050.052612,1070.318237 1051.210449,1070.388916 
	C1056.284790,1070.697998 1061.388550,1070.522095 1067.083496,1070.522095 
	C1063.528442,1061.359741 1060.244629,1052.896362 1056.714111,1043.703735 
M759.076782,1054.469971 
	C757.106628,1059.667847 755.136475,1064.865723 752.990845,1070.526733 
	C755.001953,1070.526733 756.317627,1070.553101 757.632019,1070.522095 
	C761.936646,1070.420166 767.059021,1071.676758 770.293030,1069.758057 
	C773.008911,1068.146851 773.290833,1062.703125 775.130249,1059.208984 
	C775.848816,1057.844116 777.824463,1056.425171 779.320801,1056.316650 
	C784.290588,1055.956177 789.302734,1056.180054 794.298645,1056.180054 
	C805.803833,1056.180176 805.757446,1056.199219 810.206848,1067.015747 
	C810.753845,1068.345459 812.054382,1070.265381 813.108765,1070.334229 
	C818.350647,1070.676514 823.627014,1070.490479 829.461609,1070.490479 
	C828.913208,1068.942139 828.623657,1068.047241 828.282349,1067.172363 
	C820.197083,1046.449097 812.127686,1025.719360 804.007996,1005.009521 
	C799.444458,993.369995 799.404846,993.515076 787.101624,993.385315 
	C783.763733,993.350220 782.168335,994.273499 780.955811,997.504517 
	C773.899963,1016.306274 766.580933,1035.009277 759.076782,1054.469971 
M1492.495850,1056.812866 
	C1486.894775,1056.812866 1481.293579,1056.812866 1475.465576,1056.812866 
	C1475.465576,1050.815918 1475.465576,1045.437256 1475.465576,1039.498047 
	C1485.315796,1039.498047 1494.896362,1039.498047 1504.626221,1039.498047 
	C1504.626221,1034.687866 1504.626221,1030.439941 1504.626221,1025.689453 
	C1494.831177,1025.689453 1485.252686,1025.689453 1475.553101,1025.689453 
	C1475.553101,1019.313293 1475.553101,1013.446960 1475.553101,1007.049683 
	C1486.964478,1007.049683 1498.016113,1007.049683 1508.878174,1007.049683 
	C1508.878174,1002.237244 1508.878174,997.967957 1508.878174,993.740112 
	C1491.810669,993.740112 1475.050049,993.740112 1458.277222,993.740112 
	C1458.277222,1019.394653 1458.277222,1044.773682 1458.277222,1070.288330 
	C1475.298340,1070.288330 1492.029053,1070.288330 1508.825684,1070.288330 
	C1508.825684,1065.663208 1508.825684,1061.291382 1508.825684,1056.812866 
	C1503.475342,1056.812866 1498.484253,1056.812866 1492.495850,1056.812866 
M473.693298,654.024536 
	C474.952728,654.454102 476.196106,654.940125 477.474121,655.304443 
	C489.323364,658.681763 502.348633,654.132385 509.317078,644.203796 
	C516.727905,633.644958 516.621155,619.872742 509.049011,609.628479 
	C501.587738,599.534119 488.389069,595.119690 476.540955,599.138489 
	C464.495209,603.224304 457.358673,611.836914 456.248932,624.457947 
	C455.078705,637.767029 461.206848,647.525330 473.693298,654.024536 
M1428.659424,1071.139526 
	C1436.419800,1070.071533 1443.098633,1066.746338 1449.106079,1061.749390 
	C1446.606689,1057.256348 1444.290771,1053.093140 1441.947144,1048.880127 
	C1426.394043,1060.461060 1409.885498,1056.785767 1402.514771,1048.372925 
	C1394.983521,1039.777100 1394.667725,1025.193604 1402.054688,1016.129517 
	C1410.643677,1005.590454 1425.394165,1005.054810 1442.110107,1014.905029 
	C1444.444092,1010.606873 1446.770386,1006.323120 1449.097290,1002.038208 
	C1442.083740,996.412170 1434.552979,993.371460 1426.069580,992.344421 
	C1395.274902,988.615967 1371.972656,1015.458313 1381.001099,1044.366211 
	C1386.886108,1063.209229 1405.915894,1074.135986 1428.659424,1071.139526 
M936.952881,1016.413757 
	C935.649902,1018.492126 934.346985,1020.570557 932.756165,1023.108093 
	C927.178955,1013.952759 921.977417,1005.316223 916.643188,996.762390 
	C915.839172,995.473022 914.462402,993.696594 913.272461,993.634216 
	C907.207092,993.316162 901.116089,993.487427 894.061951,993.487427 
	C895.179382,995.841003 895.679321,997.362854 896.542297,998.639221 
	C904.739624,1010.761963 913.128296,1022.758240 921.135132,1035.004639 
	C922.822144,1037.584961 923.871033,1041.006958 924.008423,1044.094849 
	C924.391479,1052.702637 924.141602,1061.338623 924.141602,1070.168945 
	C930.112793,1070.168945 935.653076,1070.168945 941.542847,1070.168945 
	C941.542847,1060.827026 941.379272,1051.849609 941.649353,1042.885254 
	C941.723755,1040.415527 942.584717,1037.648193 943.949585,1035.591187 
	C952.132263,1023.259033 960.591309,1011.110596 968.886475,998.852295 
	C969.879211,997.385254 970.440674,995.626343 971.456055,993.461243 
	C964.928467,993.461243 959.424744,993.259521 953.952454,993.585449 
	C952.333923,993.681885 950.222168,994.883179 949.332581,996.234192 
	C945.129761,1002.616150 941.272583,1009.225647 936.952881,1016.413757 
M428.313751,1221.231812 
	C438.837250,1229.178589 451.963318,1229.180420 461.972015,1221.236694 
	C470.892792,1214.156372 474.290405,1200.861206 469.806793,1190.578125 
	C464.882477,1179.284180 455.940277,1173.674072 443.376465,1173.996460 
	C433.286804,1174.255493 423.964142,1181.055298 420.168823,1190.924072 
	C416.059021,1201.610596 418.843079,1212.632324 428.313751,1221.231812 
M236.242767,620.060486 
	C232.795013,620.046021 229.273331,619.567200 225.913010,620.101990 
	C214.730560,621.882019 205.771286,631.372131 204.200439,642.608032 
	C202.678528,653.493835 208.696381,664.845337 218.665329,669.892883 
	C229.271378,675.263000 241.102051,673.369263 249.469116,665.181030 
	C263.928497,651.030823 258.147827,625.669800 236.242767,620.060486 
M315.587006,997.947876 
	C317.088989,998.984985 318.505951,1000.182129 320.106903,1001.033020 
	C329.817749,1006.194275 339.391754,1005.786560 348.257843,999.326965 
	C356.453674,993.355652 360.023041,984.881042 358.446594,974.877197 
	C356.712189,963.870728 350.163208,956.553223 339.338531,953.532593 
	C328.289673,950.449402 316.459991,955.462219 310.562775,965.420593 
	C304.433380,975.771057 306.115814,987.750793 315.587006,997.947876 
M451.872925,504.425842 
	C444.637421,514.663513 444.376434,525.866272 451.148621,535.517517 
	C457.245728,544.206482 468.649628,548.264648 478.963196,545.415466 
	C489.514404,542.500671 497.235168,533.345886 497.973785,522.873962 
	C498.803680,511.107788 492.629608,500.856628 482.129974,496.567535 
	C471.442474,492.201691 460.082092,494.984558 451.872925,504.425842 
M462.595642,680.876343 
	C462.843689,679.570007 463.147522,678.271484 463.330933,676.956177 
	C464.781830,666.552429 459.727325,656.381714 450.606354,651.301697 
	C441.507263,646.233887 430.315491,647.272339 422.079193,653.948730 
	C414.229156,660.311890 410.981628,671.206909 414.014252,681.005127 
	C417.166718,691.190674 426.468597,698.430237 436.936157,698.845032 
	C448.500732,699.303406 457.657104,693.088623 462.595642,680.876343 
M527.877441,615.681213 
	C537.854980,623.495056 549.617188,624.044128 559.292664,617.147705 
	C568.537781,610.558044 572.213379,598.596985 568.298462,587.841003 
	C564.769348,578.144897 555.726013,571.516724 545.529785,571.153015 
	C535.254883,570.786499 525.516479,576.731995 521.396484,585.886902 
	C516.861572,595.963806 519.017334,606.571777 527.877441,615.681213 
M1074.409302,994.141907 
	C1074.317749,1008.439636 1074.199707,1022.737183 1074.143433,1037.035034 
	C1074.100220,1047.992798 1074.134888,1058.950806 1074.134888,1070.171265 
	C1091.637817,1070.171265 1108.793579,1070.171265 1125.911621,1070.171265 
	C1125.911621,1065.540039 1125.911621,1061.293335 1125.911621,1056.594116 
	C1114.419556,1056.594116 1103.204956,1056.594116 1091.495117,1056.594116 
	C1091.495117,1035.417114 1091.495117,1014.698059 1091.495117,993.652039 
	C1085.715454,993.652039 1080.442627,993.652039 1074.409302,994.141907 
M528.990723,1044.500000 
	C528.990723,1053.071533 528.990723,1061.643066 528.990723,1070.178223 
	C546.703369,1070.178223 563.744812,1070.178223 580.741455,1070.178223 
	C580.741455,1065.575317 580.741455,1061.326172 580.741455,1056.660156 
	C569.224915,1056.660156 557.970825,1056.660156 546.121826,1056.660156 
	C546.121826,1035.390137 546.121826,1014.535889 546.121826,993.788025 
	C540.078735,993.788025 534.649780,993.788025 528.990723,993.788025 
	C528.990723,1010.566528 528.990723,1027.033325 528.990723,1044.500000 
M1164.491333,1056.817871 
	C1160.552979,1056.817871 1156.614746,1056.817871 1152.079712,1056.817871 
	C1152.079712,1035.360352 1152.079712,1014.517700 1152.079712,993.812256 
	C1146.038940,993.812256 1140.621826,993.812256 1135.345093,993.812256 
	C1135.345093,1019.511414 1135.345093,1044.869629 1135.345093,1070.152344 
	C1152.733643,1070.152344 1169.765625,1070.152344 1186.719238,1070.152344 
	C1186.719238,1065.536743 1186.719238,1061.296631 1186.719238,1056.817871 
	C1179.452026,1056.817871 1172.472900,1056.817871 1164.491333,1056.817871 
M611.233643,556.033325 
	C610.234558,556.023560 609.232849,555.961609 608.236816,556.012024 
	C597.753967,556.542419 589.461914,563.390137 586.717773,573.761047 
	C584.150574,583.463501 588.330994,593.822021 597.009583,599.262573 
	C605.637207,604.671143 616.634949,603.995911 624.433655,597.232544 
	C631.572876,591.041016 634.332153,583.114441 632.019531,573.868408 
	C629.438782,563.550537 622.447754,557.865601 611.233643,556.033325 
M378.525391,722.266052 
	C375.432922,732.891174 378.223785,741.860718 386.974579,748.408997 
	C394.876709,754.322327 403.670532,754.642456 412.353882,749.854736 
	C421.211212,744.971069 425.795044,734.476074 423.641144,724.718628 
	C421.396851,714.551636 413.049805,707.183228 402.654816,706.193115 
	C392.515106,705.227295 383.376129,711.105713 378.525391,722.266052 
M576.735168,479.983307 
	C571.132446,468.746826 559.893555,463.748627 549.024231,467.659698 
	C538.576294,471.419189 532.362305,482.157593 534.582825,492.615967 
	C537.324585,505.529572 549.513306,513.204163 562.053894,509.912994 
	C574.558960,506.631195 580.975769,494.092407 576.735168,479.983307 
M401.609619,1065.042358 
	C408.146667,1056.193848 408.537354,1046.591553 402.703186,1038.163086 
	C397.518066,1030.672363 387.678772,1027.121460 378.905945,1029.575073 
	C369.503540,1032.204712 363.219879,1039.979980 362.461761,1049.922729 
	C361.822327,1058.309082 367.224396,1067.220215 375.162354,1070.873535 
	C384.302002,1075.079956 393.465118,1073.213135 401.609619,1065.042358 
M533.502380,1218.117310 
	C532.497498,1220.014526 531.262146,1221.826538 530.525452,1223.822754 
	C525.964539,1236.180786 532.525452,1249.379517 544.826355,1252.787598 
	C557.677551,1256.348267 570.402954,1248.280396 572.749573,1235.084229 
	C574.373169,1225.953979 569.326599,1216.234131 560.723816,1211.921753 
	C551.959656,1207.528687 541.708862,1209.689331 533.502380,1218.117310 
M308.902924,559.148071 
	C312.226715,549.596863 310.019043,539.951111 303.184204,534.161926 
	C296.107330,528.167725 286.050262,527.065857 278.049591,531.408203 
	C269.871307,535.846924 265.759705,544.491943 267.015106,554.609070 
	C268.135559,563.638916 275.368958,570.484924 285.884125,572.467529 
	C294.614990,574.113708 303.662689,569.083923 308.902924,559.148071 
M593.811035,1070.521362 
	C598.106750,1070.521362 602.402466,1070.521362 606.935242,1070.521362 
	C606.935242,1044.709717 606.935242,1019.302979 606.935242,993.704346 
	C601.283508,993.704346 595.861816,993.704346 590.000122,993.704346 
	C590.000122,1018.707031 589.974426,1043.483032 590.121277,1068.258057 
	C590.125793,1069.017822 591.923767,1069.766846 593.811035,1070.521362 
M1213.171875,1002.620605 
	C1213.171875,999.669495 1213.171875,996.718323 1213.171875,993.750610 
	C1207.170410,993.750610 1201.734131,993.750610 1196.301025,993.750610 
	C1196.301025,1019.401611 1196.301025,1044.782593 1196.301025,1070.233887 
	C1202.013062,1070.233887 1207.415283,1070.233887 1213.171997,1070.233887 
	C1213.171997,1047.828247 1213.171997,1025.709473 1213.171875,1002.620605 
M627.766785,476.658447 
	C625.297729,486.082367 627.930481,493.869843 635.160645,498.529022 
	C641.923828,502.887299 650.925415,502.399780 656.987366,497.346893 
	C663.013611,492.323761 665.399292,484.505829 662.872192,477.149567 
	C660.235474,469.474457 654.647766,465.295502 646.636536,464.438965 
	C638.797241,463.600739 632.234497,467.704193 627.766785,476.658447 
M453.345642,1090.011475 
	C444.836456,1090.052124 438.605225,1093.854248 435.385742,1101.728149 
	C432.403137,1109.023071 434.009338,1115.820435 439.280182,1121.564941 
	C444.174164,1126.898682 452.646271,1128.546631 459.505371,1125.861938 
	C467.263916,1122.825195 471.851471,1115.041138 471.005005,1106.349854 
	C470.165009,1097.725586 464.214874,1091.962280 453.345642,1090.011475 
M384.520874,775.848572 
	C370.842682,776.988159 362.844543,789.080505 367.772308,801.170654 
	C371.186218,809.546631 379.936737,814.101379 388.857178,812.145569 
	C397.920563,810.158508 403.712921,802.265869 403.119232,792.712341 
	C402.546265,783.492126 395.556427,776.844238 384.520874,775.848572 
M658.366577,577.294128 
	C658.243164,579.110413 657.977539,580.930054 658.019836,582.742493 
	C658.268311,593.402405 667.595825,601.179749 678.655945,600.014954 
	C688.957458,598.930054 696.499329,588.689148 694.441833,578.579468 
	C692.716125,570.099426 686.500549,564.360229 678.109924,563.499207 
	C669.376282,562.603027 662.355774,567.297302 658.366577,577.294128 
M652.525574,1220.839844 
	C645.812256,1225.164307 642.912292,1231.440308 644.262207,1239.165161 
	C645.461243,1246.026001 649.619507,1250.953613 656.546875,1252.852417 
	C663.741272,1254.824463 669.997620,1252.949585 675.026489,1247.381348 
	C679.984436,1241.891724 680.493652,1232.132568 676.215027,1226.019653 
	C671.131287,1218.756348 662.178467,1216.600586 652.525574,1220.839844 
M374.070770,459.969940 
	C372.740356,459.941345 371.407288,459.843842 370.080017,459.895721 
	C363.075500,460.169586 357.902313,463.550507 355.285492,469.928558 
	C352.596954,476.481506 353.042389,483.003387 357.977295,488.614990 
	C362.658905,493.938538 368.496185,496.072083 375.453827,494.231140 
	C383.758484,492.033783 388.866455,485.439850 388.917480,477.165283 
	C388.967773,469.017426 383.830933,462.732971 374.070770,459.969940 
M368.094025,865.248169 
	C368.606171,866.470215 369.004150,867.756470 369.648987,868.903931 
	C373.666779,876.053345 382.486694,878.758484 389.918427,875.173645 
	C397.329559,871.598572 400.681091,862.992615 397.630981,855.369568 
	C394.672668,847.975952 386.682861,844.067749 378.796509,846.156799 
	C371.099335,848.195801 366.905823,855.292908 368.094025,865.248169 
M732.893127,613.850586 
	C739.161072,617.341492 745.421997,617.352905 751.083496,612.884033 
	C756.197510,608.847351 758.086121,603.277344 756.434814,596.843384 
	C754.745789,590.261963 749.086121,585.634583 742.471741,585.155457 
	C735.851440,584.675903 729.473572,588.631104 727.007751,594.745544 
	C724.243347,601.600159 725.999756,607.826111 732.893127,613.850586 
M391.640778,938.055664 
	C396.734100,940.487305 401.667755,940.260986 406.084229,936.668518 
	C409.977020,933.501953 411.539520,929.224670 410.584564,924.246704 
	C409.492920,918.556274 404.914856,914.460693 399.324829,913.941528 
	C393.454407,913.396362 388.262970,916.367554 386.061432,921.532654 
	C383.529266,927.473572 385.196655,932.942322 391.640778,938.055664 
M796.654724,624.868530 
	C788.480164,626.163696 783.698059,631.790344 784.569153,639.088501 
	C785.394470,646.003540 791.064575,650.861328 797.961060,650.561890 
	C804.768494,650.266296 809.903503,645.173889 810.154419,638.469788 
	C810.446533,630.664185 805.868042,625.739380 796.654724,624.868530 
M524.059082,1141.792847 
	C522.212158,1147.468262 523.497253,1152.374634 528.034424,1156.190308 
	C532.077759,1159.590942 538.221741,1159.986938 542.575378,1157.488159 
	C547.240051,1154.810791 549.632751,1149.897461 548.958618,1144.379150 
	C548.299133,1138.980225 544.284058,1134.770996 538.632751,1133.554565 
	C532.872437,1132.314575 528.098572,1134.821289 524.059082,1141.792847 
M728.784546,512.949402 
	C736.833374,516.986145 743.975708,515.200134 747.633667,508.235962 
	C750.882507,502.050659 748.539368,494.393585 742.364014,491.015442 
	C736.708862,487.921875 729.845093,489.422272 725.835144,494.628601 
	C721.594238,500.134796 722.435913,506.580963 728.784546,512.949402 
M777.947998,1217.599121 
	C783.199524,1212.481812 784.081299,1208.141968 780.910522,1203.019165 
	C778.561890,1199.224609 773.354553,1197.276367 769.150146,1198.619263 
	C763.234253,1200.508789 760.047485,1206.373901 761.906006,1211.951294 
	C764.013367,1218.275391 770.051880,1220.652588 777.947998,1217.599121 
M474.596344,437.048737 
	C482.197266,436.389618 486.763367,431.121948 485.316772,424.681183 
	C484.010681,418.866180 479.510254,415.522491 473.711731,416.059082 
	C468.765350,416.516815 464.796906,420.772949 464.319458,426.132202 
	C463.853058,431.367432 467.477753,435.533722 474.596344,437.048737 
z"/>
<path fill="#535F79" opacity="1.000000" stroke="none" 
	d="
M1668.000000,1.500000 
	C1112.931641,2.000000 557.863220,2.000000 2.308474,2.000000 
	C2.189991,3.966675 2.009368,5.564565 2.009353,7.162457 
	C2.004167,560.423828 2.011313,1113.685303 1.778890,1667.450684 
	C1.359693,1667.969727 1.179847,1667.984863 1.000000,1668.000000 
	C1.000000,1112.333374 1.000000,556.666809 1.000000,1.000099 
	C556.666687,1.000000 1112.333374,1.000000 1668.000000,1.500000 
z"/>
<path fill="#C5C9D2" opacity="1.000000" stroke="none" 
	d="
M1.000000,1668.500000 
	C1.179847,1667.984863 1.359693,1667.969727 1.804806,1667.899170 
	C4.065786,1667.895752 6.061499,1667.993530 8.057213,1667.993530 
	C561.073059,1668.000000 1114.088867,1668.000000 1667.552490,1668.000000 
	C1667.833496,1668.333374 1667.684204,1668.943848 1667.497314,1668.955566 
	C1666.169067,1669.038940 1664.833374,1669.000000 1663.500000,1669.000000 
	C1109.333374,1669.000000 555.166687,1669.000000 1.000000,1668.500000 
z"/>
<path fill="#FDFDFE" opacity="1.000000" stroke="none" 
	d="
M879.197632,807.607788 
	C879.481140,812.719788 879.960999,817.370239 879.967590,822.021362 
	C880.026489,863.686707 880.002014,905.352173 880.002075,947.017639 
	C880.002075,948.157532 880.002075,949.297363 880.002075,950.719116 
	C857.816895,950.719116 835.909668,950.719116 813.486511,950.719116 
	C813.486511,948.706787 813.486450,946.744812 813.486511,944.782837 
	C813.487671,906.283936 813.547974,867.784973 813.455139,829.286255 
	C813.426208,817.274597 812.618958,805.312317 807.912842,794.015381 
	C798.710632,771.925964 769.706909,765.073730 752.124268,780.950134 
	C744.064880,788.227295 740.803894,798.078064 739.199829,808.398987 
	C738.131042,815.276001 737.613464,822.303650 737.586487,829.266785 
	C737.437317,867.765076 737.514709,906.264221 737.514465,944.763123 
	C737.514465,946.726624 737.514465,948.690125 737.514465,950.825928 
	C715.379150,950.825928 693.750610,950.825928 671.490540,950.825928 
	C671.490540,948.827515 671.490479,946.886108 671.490540,944.944763 
	C671.491699,906.279236 671.808655,867.609375 671.288818,828.950867 
	C671.145264,818.275513 669.577148,807.342224 666.766235,797.044922 
	C662.562195,781.644043 650.853577,773.225952 636.209717,772.842590 
	C617.880859,772.362976 607.174988,779.163086 600.771362,795.283386 
	C596.382690,806.331238 595.575562,817.940796 595.548523,829.616760 
	C595.459351,868.115479 595.513367,906.614441 595.512451,945.113342 
	C595.512390,946.916565 595.512451,948.719788 595.512451,950.760986 
	C573.308899,950.760986 551.529785,950.760986 529.373291,950.760986 
	C529.373291,875.017273 529.373291,799.120117 529.373291,722.853577 
	C551.084839,722.853577 572.964050,722.853577 595.466003,722.853577 
	C595.466003,732.396179 595.466003,741.924927 595.466003,751.453674 
	C612.468933,729.158630 633.475525,716.135559 662.138611,717.788940 
	C689.875732,719.388916 712.269775,729.969482 726.344421,755.286133 
	C741.718750,728.084778 765.981873,718.286926 795.393311,717.780090 
	C811.314941,717.505676 826.609924,719.586365 840.562988,727.831116 
	C858.781677,738.596313 868.526184,755.550049 873.716980,775.239258 
	C876.456909,785.632263 877.412903,796.495605 879.197632,807.607788 
z"/>
<path fill="#FDFEFE" opacity="1.000000" stroke="none" 
	d="
M909.309814,771.314697 
	C938.949951,715.934326 1006.450562,707.616089 1044.998291,727.087891 
	C1057.202026,733.252502 1067.603394,741.592896 1076.770508,752.982117 
	C1076.770508,742.444580 1076.770508,732.745789 1076.770508,722.770142 
	C1099.159302,722.770142 1121.062988,722.770142 1143.240723,722.770142 
	C1143.240723,798.908997 1143.240723,874.804871 1143.240723,950.851562 
	C1121.188354,950.851562 1099.397949,950.851562 1077.169678,950.851562 
	C1077.169678,940.385986 1077.169678,929.990295 1077.169678,918.433899 
	C1073.276123,923.016113 1070.274902,926.846252 1066.967651,930.390686 
	C1048.346436,950.347534 1024.894897,957.531677 998.285400,955.827332 
	C959.386658,953.335938 928.650940,936.331238 910.292358,901.577332 
	C887.750977,858.904968 888.221008,815.142090 909.309814,771.314697 
M1078.749634,843.115723 
	C1079.011353,832.041748 1077.646484,821.209045 1073.960083,810.717896 
	C1065.539307,786.753113 1044.556641,772.026794 1018.557678,771.840515 
	C993.231262,771.659058 973.933411,784.864868 965.301575,808.540222 
	C960.167786,822.620850 959.181763,837.151245 962.068726,851.812988 
	C973.214844,908.420410 1029.989136,911.547791 1057.660767,889.208679 
	C1072.042480,877.598328 1077.505615,861.800354 1078.749634,843.115723 
z"/>
<path fill="#FEFEFE" opacity="1.000000" stroke="none" 
	d="
M1379.463623,777.261719 
	C1364.298828,786.106934 1359.093750,800.340271 1357.082886,816.221313 
	C1356.312500,822.304688 1356.218506,828.502075 1356.205933,834.648376 
	C1356.131104,871.472900 1356.169678,908.297546 1356.170166,945.122192 
	C1356.170166,946.917847 1356.170166,948.713501 1356.170166,950.753052 
	C1334.049561,950.753052 1312.289795,950.753052 1290.180420,950.753052 
	C1290.180420,874.907043 1290.180420,799.029968 1290.180420,722.820068 
	C1312.024780,722.820068 1333.912598,722.820068 1356.276367,722.820068 
	C1356.276367,732.562866 1356.276367,742.123840 1356.276367,752.262939 
	C1361.351440,746.971863 1365.632324,741.929382 1370.500000,737.537354 
	C1388.591797,721.213379 1410.404053,716.724121 1434.022461,717.853577 
	C1467.851807,719.471191 1491.834717,738.985107 1501.872803,773.350464 
	C1506.483765,789.136292 1508.362793,805.329468 1508.440063,821.677917 
	C1508.638672,863.667053 1508.510620,905.657715 1508.501953,947.647766 
	C1508.501709,948.620300 1508.367920,949.592834 1508.281128,950.774597 
	C1486.290161,950.774597 1464.512451,950.774597 1441.998901,950.774597 
	C1441.998901,949.154968 1442.000854,947.408691 1441.998535,945.662476 
	C1441.944336,904.673828 1442.020386,863.684082 1441.701782,822.697510 
	C1441.650635,816.124084 1440.457520,809.395203 1438.727783,803.027222 
	C1430.665771,773.344238 1405.469116,768.680908 1383.902710,775.300903 
	C1382.484131,775.736328 1381.160522,776.481140 1379.463623,777.261719 
z"/>
<path fill="#FFFFFF" opacity="1.000000" stroke="none" 
	d="
M1250.001221,939.978394 
	C1250.001221,943.784119 1250.001221,947.093262 1250.001221,950.700073 
	C1227.706787,950.700073 1205.654297,950.700073 1183.315430,950.700073 
	C1183.315430,874.708374 1183.315430,798.709900 1183.315430,722.437378 
	C1205.435669,722.437378 1227.351074,722.437378 1250.001221,722.437378 
	C1250.001221,794.755798 1250.001221,867.118713 1250.001221,939.978394 
z"/>
<path fill="#2454B5" opacity="1.000000" stroke="none" 
	d="
M209.020294,1012.160645 
	C176.779099,1001.017273 166.883392,965.002747 188.618744,939.211670 
	C198.835083,927.088989 219.050156,921.547241 234.790588,926.554016 
	C252.102859,932.060791 264.433136,947.388977 266.134521,964.280029 
	C269.059448,993.317261 245.830261,1015.239990 219.720322,1013.938721 
	C216.264252,1013.766418 212.845352,1012.848267 209.020294,1012.160645 
z"/>
<path fill="#0066FE" opacity="1.000000" stroke="none" 
	d="
M284.109894,754.997070 
	C270.002777,745.092102 263.890167,731.715637 266.138367,715.105774 
	C268.142670,700.297791 276.589722,689.837524 290.299194,683.798279 
	C304.838135,677.393616 322.693573,680.800049 334.262970,692.075317 
	C345.905060,703.421448 349.502960,721.038208 343.305145,736.348938 
	C337.214874,751.394104 322.951111,760.923218 306.735626,761.210388 
	C298.629578,761.353882 291.288239,759.309570 284.109894,754.997070 
z"/>
<path fill="#0066FE" opacity="1.000000" stroke="none" 
	d="
M1230.247925,697.447876 
	C1213.545166,701.327271 1198.625000,698.769348 1186.322510,686.857727 
	C1170.312012,671.355835 1171.889282,647.278503 1189.459717,633.551331 
	C1206.170410,620.495850 1231.132812,621.078430 1247.194702,634.898865 
	C1266.285767,651.325684 1263.125244,679.970154 1240.680664,692.989563 
	C1237.549927,694.805603 1233.992310,695.885437 1230.247925,697.447876 
z"/>
<path fill="#2454B5" opacity="1.000000" stroke="none" 
	d="
M268.854492,1026.621216 
	C292.632416,1023.300964 312.754333,1039.219727 313.744019,1062.674927 
	C314.596985,1082.889404 300.313629,1099.343384 280.627594,1101.871338 
	C259.810211,1104.544800 241.127731,1090.453613 238.019012,1070.707397 
	C234.607803,1049.039917 248.676849,1030.514038 268.854492,1026.621216 
z"/>
<path fill="#2454B5" opacity="1.000000" stroke="none" 
	d="
M235.409271,853.924683 
	C238.872772,876.101379 227.977402,893.589661 207.570740,899.226135 
	C187.690796,904.717224 165.848862,891.730469 161.191910,871.650391 
	C156.280029,850.471008 169.356476,829.233521 189.867844,825.077820 
	C210.829330,820.830872 229.018936,832.221680 235.409271,853.924683 
z"/>
<path fill="#0066FE" opacity="1.000000" stroke="none" 
	d="
M377.536621,652.302856 
	C371.911377,667.532654 361.024628,675.265930 345.478302,676.538696 
	C332.800476,677.576599 318.532715,669.202515 312.944244,657.307922 
	C306.381104,643.338684 308.015900,630.176025 317.871460,618.199768 
	C327.525879,606.467957 345.343445,602.948303 359.671326,609.852356 
	C374.039398,616.775940 381.899078,632.851929 378.579102,648.555603 
	C378.338684,649.692993 377.991638,650.807739 377.536621,652.302856 
z"/>
<path fill="#0066FE" opacity="1.000000" stroke="none" 
	d="
M274.285278,778.204224 
	C288.482880,770.072693 304.512909,771.326782 315.962616,781.253418 
	C327.307312,791.088928 331.211823,806.767395 325.801392,820.760620 
	C320.502319,834.465820 306.645264,843.496826 291.697479,842.986938 
	C276.931152,842.483337 263.804474,832.336121 259.519135,818.112488 
	C254.947540,802.938660 260.352417,788.082153 274.285278,778.204224 
z"/>
<path fill="#2454B5" opacity="1.000000" stroke="none" 
	d="
M374.345459,1171.323975 
	C359.976105,1185.697144 341.342407,1186.520874 325.611847,1173.721924 
	C312.857910,1163.344849 310.126221,1142.560669 320.266541,1127.922607 
	C328.471588,1116.078491 340.396301,1111.247681 354.610992,1113.322632 
	C368.461670,1115.344482 379.994781,1126.506470 382.883331,1139.636597 
	C385.504730,1151.552246 382.707977,1162.001465 374.345459,1171.323975 
z"/>
<path fill="#2454B5" opacity="1.000000" stroke="none" 
	d="
M168.999588,733.115356 
	C179.856186,716.490295 200.140213,713.304688 214.550644,720.775085 
	C227.664566,727.573364 234.943771,741.816162 232.924576,757.135254 
	C231.069397,771.210022 219.645950,783.317200 205.353790,785.869019 
	C191.369537,788.365906 179.319611,784.251343 170.839523,772.874451 
	C161.614471,760.498230 161.338409,747.001648 168.999588,733.115356 
z"/>
<path fill="#FDFDFD" opacity="1.000000" stroke="none" 
	d="
M1319.876465,1070.108643 
	C1314.422485,1070.156738 1309.458252,1070.156738 1304.247559,1070.156738 
	C1304.247559,1044.560059 1304.247559,1019.299622 1304.247559,993.495117 
	C1308.068115,993.495117 1311.893921,993.205566 1315.635864,993.639038 
	C1317.110840,993.809875 1318.734863,995.345642 1319.720093,996.681091 
	C1329.896240,1010.475281 1339.955566,1024.355591 1350.674438,1039.073120 
	C1350.674438,1023.520691 1350.674438,1008.881714 1350.674438,993.864502 
	C1356.727295,993.864502 1362.260986,993.864502 1367.987549,993.864502 
	C1367.987549,1019.308899 1367.987549,1044.601196 1367.987549,1070.500244 
	C1364.084839,1070.500244 1360.280029,1070.751221 1356.541382,1070.364502 
	C1355.229248,1070.228760 1353.798096,1068.733521 1352.898560,1067.508667 
	C1343.440063,1054.629639 1334.082642,1041.676270 1324.682129,1028.754517 
	C1323.845825,1027.604736 1322.903320,1026.532104 1321.174805,1024.387085 
	C1321.174805,1038.722900 1321.204590,1051.789917 1321.138916,1064.856689 
	C1321.130249,1066.592529 1320.635620,1068.325928 1319.876465,1070.108643 
z"/>
<path fill="#FBFBFC" opacity="1.000000" stroke="none" 
	d="
M655.502686,993.567261 
	C664.238403,994.408142 671.621582,997.034058 676.327148,1004.426025 
	C681.550415,1012.631226 679.399170,1022.631287 671.425964,1028.204346 
	C670.352905,1028.954468 669.248108,1029.659058 668.049316,1030.457153 
	C679.600098,1035.650513 684.496948,1043.738159 681.915405,1053.964722 
	C679.441040,1063.766968 671.987915,1068.940796 662.736938,1069.638916 
	C649.698364,1070.622925 636.530029,1069.887939 623.203613,1069.887939 
	C623.203613,1044.627075 623.203613,1019.201721 623.203613,993.503540 
	C633.878296,993.503540 644.467041,993.503540 655.502686,993.567261 
M665.004272,1048.392578 
	C665.127319,1043.104614 662.437805,1039.733154 657.404785,1038.947021 
	C651.820923,1038.074829 646.119324,1037.956055 640.587524,1037.518555 
	C640.587524,1044.632080 640.587524,1050.648438 640.587524,1056.831909 
	C645.816406,1056.831909 650.630554,1057.067871 655.410583,1056.765259 
	C660.169739,1056.463867 664.132751,1054.665405 665.004272,1048.392578 
M657.609070,1008.596680 
	C651.964050,1007.934631 646.319031,1007.272583 640.481628,1006.588013 
	C640.481628,1013.681641 640.481628,1019.576660 640.481628,1026.176636 
	C645.283203,1025.714355 649.821594,1025.778442 654.100342,1024.756104 
	C661.897705,1022.893066 663.856995,1014.884949 657.609070,1008.596680 
z"/>
<path fill="#0066FD" opacity="1.000000" stroke="none" 
	d="
M431.543579,567.601990 
	C433.094971,586.212402 420.638367,601.620300 402.733795,603.758972 
	C385.872925,605.772888 369.888184,593.475159 367.165527,576.394714 
	C364.414337,559.135193 375.798767,542.971313 393.180511,539.458069 
	C411.333160,535.789001 428.086639,547.917419 431.543579,567.601990 
z"/>
<path fill="#0066FD" opacity="1.000000" stroke="none" 
	d="
M326.011841,913.895020 
	C318.635498,925.513428 308.124969,930.829285 295.003540,929.595764 
	C282.301178,928.401794 272.927643,921.560730 268.055481,909.534180 
	C262.306152,895.342529 267.034027,879.487854 279.203339,870.911865 
	C291.513428,862.236755 308.513947,863.029480 319.371246,872.785095 
	C331.272278,883.478638 333.868042,899.020386 326.011841,913.895020 
z"/>
<path fill="#F7F8F9" opacity="1.000000" stroke="none" 
	d="
M855.774109,1043.192139 
	C854.470764,1044.430664 853.001831,1045.648438 852.965942,1046.906860 
	C852.748413,1054.552124 852.857544,1062.206543 852.857544,1070.197754 
	C847.157898,1070.197754 841.726868,1070.197754 835.875977,1070.197754 
	C835.875977,1044.892700 835.875977,1019.523560 835.875977,993.460022 
	C842.623108,993.460022 849.390259,993.456116 856.157410,993.461243 
	C861.487915,993.465271 866.833557,993.227417 872.145874,993.543335 
	C883.252136,994.203918 891.674500,1001.627563 893.862854,1012.301575 
	C896.358093,1024.472534 891.808472,1035.152954 881.884216,1040.429932 
	C880.880737,1040.963501 879.886597,1041.514648 878.325500,1042.363647 
	C884.066284,1051.650391 889.675720,1060.724854 895.733276,1070.524170 
	C889.689636,1070.524170 884.404846,1070.744751 879.161987,1070.373169 
	C877.806396,1070.277100 876.175476,1068.561523 875.368164,1067.181885 
	C871.759827,1061.015869 868.188599,1054.807983 865.036499,1048.402344 
	C863.125549,1044.519043 860.837708,1042.175903 855.774109,1043.192139 
M877.020630,1016.853577 
	C876.381775,1012.048950 873.942627,1008.567261 868.959412,1008.155640 
	C863.727966,1007.723450 858.433105,1008.058960 853.102905,1008.058960 
	C853.102905,1015.272095 853.102905,1022.002869 853.102905,1029.143066 
	C857.291443,1029.143066 861.242737,1029.148560 865.194031,1029.141846 
	C874.050720,1029.126831 876.771667,1026.505005 877.020630,1016.853577 
z"/>
<path fill="#F8F9F9" opacity="1.000000" stroke="none" 
	d="
M746.947083,1070.452393 
	C733.915710,1073.205444 725.743713,1068.400635 721.833252,1056.065430 
	C721.144348,1053.892090 719.345093,1052.080688 718.588074,1049.916992 
	C716.454468,1043.818604 712.369385,1041.826172 705.783630,1043.696655 
	C705.783630,1052.182739 705.783630,1060.938965 705.783630,1070.111328 
	C699.762878,1070.111328 694.227661,1070.111328 688.413269,1070.111328 
	C688.413269,1044.794678 688.413269,1019.554749 688.413269,993.722473 
	C689.906799,993.639587 691.487549,993.479858 693.068604,993.476013 
	C702.725342,993.452393 712.382080,993.438782 722.038757,993.470337 
	C734.986755,993.512634 743.415283,999.952087 746.381287,1012.007507 
	C749.461304,1024.526001 744.600464,1035.206177 733.135132,1041.147217 
	C732.562439,1041.443970 732.053223,1041.863281 731.058105,1042.532349 
	C736.047913,1050.485596 741.008728,1058.311157 745.857117,1066.205811 
	C746.616699,1067.442505 746.865906,1068.992798 746.947083,1070.452393 
M728.330688,1012.430725 
	C726.376221,1011.005493 724.527527,1008.568359 722.446960,1008.351074 
	C716.922485,1007.773987 711.298035,1008.155029 705.892761,1008.155029 
	C705.892761,1015.415955 705.892761,1022.143616 705.892761,1029.146240 
	C709.892639,1029.146240 713.532471,1029.147095 717.172302,1029.146240 
	C728.179321,1029.143311 732.069153,1023.749634 728.330688,1012.430725 
z"/>
<path fill="#FAFAFB" opacity="1.000000" stroke="none" 
	d="
M1277.234619,1019.631836 
	C1283.896729,1036.622925 1290.411377,1053.255493 1297.175171,1070.524170 
	C1291.375732,1070.524170 1286.254639,1070.702637 1281.164307,1070.387085 
	C1280.023071,1070.316284 1278.220093,1068.645386 1278.025757,1067.491577 
	C1276.335571,1057.456055 1270.359619,1054.300537 1260.880981,1056.140747 
	C1259.436768,1056.421265 1257.890503,1056.152222 1256.392456,1056.185303 
	C1252.244263,1056.277100 1247.219971,1055.007935 1244.208496,1056.912354 
	C1241.481201,1058.636963 1241.092651,1063.903076 1239.372559,1067.462646 
	C1238.771362,1068.707031 1237.327148,1070.315186 1236.178589,1070.390503 
	C1231.243896,1070.713989 1226.275757,1070.528442 1220.433228,1070.528442 
	C1230.497192,1044.421631 1240.310059,1018.966492 1250.088989,993.599060 
	C1255.826050,993.599060 1262.247803,991.776123 1266.131836,994.133850 
	C1269.708008,996.304871 1270.621216,1002.942993 1272.585815,1007.664001 
	C1274.179932,1011.494873 1275.593506,1015.400818 1277.234619,1019.631836 
M1254.616943,1042.166748 
	C1259.048584,1042.166748 1263.480103,1042.166748 1268.639893,1042.166748 
	C1265.267944,1032.051147 1262.117310,1022.599915 1258.604614,1012.062256 
	C1254.985229,1022.717712 1251.772583,1032.175781 1248.378906,1042.166870 
	C1250.706055,1042.166870 1252.182739,1042.166870 1254.616943,1042.166748 
z"/>
<path fill="#FAFAFB" opacity="1.000000" stroke="none" 
	d="
M1056.837402,1044.068359 
	C1060.244629,1052.896362 1063.528442,1061.359741 1067.083496,1070.522095 
	C1061.388550,1070.522095 1056.284790,1070.697998 1051.210449,1070.388916 
	C1050.052612,1070.318237 1048.199829,1068.700684 1048.018311,1067.577026 
	C1046.334717,1057.150391 1039.879395,1054.449585 1030.420898,1056.156616 
	C1029.453613,1056.331299 1028.405640,1056.315552 1027.431885,1056.159058 
	C1017.846924,1054.618530 1010.638184,1056.608643 1009.076050,1067.842773 
	C1008.933105,1068.870728 1006.934265,1070.324585 1005.724121,1070.399658 
	C1000.942932,1070.695801 996.132690,1070.521118 990.758972,1070.521118 
	C991.248718,1068.854126 991.517151,1067.630981 991.961182,1066.475342 
	C1000.770020,1043.549194 1009.647827,1020.649292 1018.364990,997.688354 
	C1019.505737,994.683594 1020.768555,993.304565 1024.333618,993.355408 
	C1036.960815,993.535522 1036.945068,993.364990 1041.596558,1005.251831 
	C1046.615356,1018.077087 1051.673218,1030.887085 1056.837402,1044.068359 
M1022.155945,1030.725342 
	C1020.966980,1034.391602 1019.777954,1038.057739 1018.547424,1041.852295 
	C1025.496948,1041.852295 1031.721313,1041.852295 1038.470215,1041.852295 
	C1035.186646,1032.005249 1032.051392,1022.603516 1028.574097,1012.175598 
	C1026.300049,1018.791321 1024.375854,1024.389282 1022.155945,1030.725342 
z"/>
<path fill="#FAFAFB" opacity="1.000000" stroke="none" 
	d="
M759.213867,1054.107788 
	C766.580933,1035.009277 773.899963,1016.306274 780.955811,997.504517 
	C782.168335,994.273499 783.763733,993.350220 787.101624,993.385315 
	C799.404846,993.515076 799.444458,993.369995 804.007996,1005.009521 
	C812.127686,1025.719360 820.197083,1046.449097 828.282349,1067.172363 
	C828.623657,1068.047241 828.913208,1068.942139 829.461609,1070.490479 
	C823.627014,1070.490479 818.350647,1070.676514 813.108765,1070.334229 
	C812.054382,1070.265381 810.753845,1068.345459 810.206848,1067.015747 
	C805.757446,1056.199219 805.803833,1056.180176 794.298645,1056.180054 
	C789.302734,1056.180054 784.290588,1055.956177 779.320801,1056.316650 
	C777.824463,1056.425171 775.848816,1057.844116 775.130249,1059.208984 
	C773.290833,1062.703125 773.008911,1068.146851 770.293030,1069.758057 
	C767.059021,1071.676758 761.936646,1070.420166 757.632019,1070.522095 
	C756.317627,1070.553101 755.001953,1070.526733 752.990845,1070.526733 
	C755.136475,1064.865723 757.106628,1059.667847 759.213867,1054.107788 
M798.698059,1034.778687 
	C796.333862,1027.734131 793.969727,1020.689575 791.605591,1013.645020 
	C791.261230,1013.670044 790.916870,1013.695007 790.572449,1013.719971 
	C787.368530,1023.042480 784.164551,1032.364990 780.872498,1041.943848 
	C787.774170,1041.943848 794.196838,1041.943848 800.906677,1041.943848 
	C800.187988,1039.621704 799.557068,1037.583252 798.698059,1034.778687 
z"/>
<path fill="#F9F9FA" opacity="1.000000" stroke="none" 
	d="
M1492.994507,1056.812866 
	C1498.484253,1056.812866 1503.475342,1056.812866 1508.825684,1056.812866 
	C1508.825684,1061.291382 1508.825684,1065.663208 1508.825684,1070.288330 
	C1492.029053,1070.288330 1475.298340,1070.288330 1458.277222,1070.288330 
	C1458.277222,1044.773682 1458.277222,1019.394653 1458.277222,993.740112 
	C1475.050049,993.740112 1491.810669,993.740112 1508.878174,993.740112 
	C1508.878174,997.967957 1508.878174,1002.237244 1508.878174,1007.049683 
	C1498.016113,1007.049683 1486.964478,1007.049683 1475.553101,1007.049683 
	C1475.553101,1013.446960 1475.553101,1019.313293 1475.553101,1025.689453 
	C1485.252686,1025.689453 1494.831177,1025.689453 1504.626221,1025.689453 
	C1504.626221,1030.439941 1504.626221,1034.687866 1504.626221,1039.498047 
	C1494.896362,1039.498047 1485.315796,1039.498047 1475.465576,1039.498047 
	C1475.465576,1045.437256 1475.465576,1050.815918 1475.465576,1056.812866 
	C1481.293579,1056.812866 1486.894775,1056.812866 1492.994507,1056.812866 
z"/>
<path fill="#36CAD9" opacity="1.000000" stroke="none" 
	d="
M473.332825,653.893860 
	C461.206848,647.525330 455.078705,637.767029 456.248932,624.457947 
	C457.358673,611.836914 464.495209,603.224304 476.540955,599.138489 
	C488.389069,595.119690 501.587738,599.534119 509.049011,609.628479 
	C516.621155,619.872742 516.727905,633.644958 509.317078,644.203796 
	C502.348633,654.132385 489.323364,658.681763 477.474121,655.304443 
	C476.196106,654.940125 474.952728,654.454102 473.332825,653.893860 
z"/>
<path fill="#FBFBFB" opacity="1.000000" stroke="none" 
	d="
M1428.224243,1071.185425 
	C1405.915894,1074.135986 1386.886108,1063.209229 1381.001099,1044.366211 
	C1371.972656,1015.458313 1395.274902,988.615967 1426.069580,992.344421 
	C1434.552979,993.371460 1442.083740,996.412170 1449.097290,1002.038208 
	C1446.770386,1006.323120 1444.444092,1010.606873 1442.110107,1014.905029 
	C1425.394165,1005.054810 1410.643677,1005.590454 1402.054688,1016.129517 
	C1394.667725,1025.193604 1394.983521,1039.777100 1402.514771,1048.372925 
	C1409.885498,1056.785767 1426.394043,1060.461060 1441.947144,1048.880127 
	C1444.290771,1053.093140 1446.606689,1057.256348 1449.106079,1061.749390 
	C1443.098633,1066.746338 1436.419800,1070.071533 1428.224243,1071.185425 
z"/>
<path fill="#F7F8F9" opacity="1.000000" stroke="none" 
	d="
M937.122498,1016.083862 
	C941.272583,1009.225647 945.129761,1002.616150 949.332581,996.234192 
	C950.222168,994.883179 952.333923,993.681885 953.952454,993.585449 
	C959.424744,993.259521 964.928467,993.461243 971.456055,993.461243 
	C970.440674,995.626343 969.879211,997.385254 968.886475,998.852295 
	C960.591309,1011.110596 952.132263,1023.259033 943.949585,1035.591187 
	C942.584717,1037.648193 941.723755,1040.415527 941.649353,1042.885254 
	C941.379272,1051.849609 941.542847,1060.827026 941.542847,1070.168945 
	C935.653076,1070.168945 930.112793,1070.168945 924.141602,1070.168945 
	C924.141602,1061.338623 924.391479,1052.702637 924.008423,1044.094849 
	C923.871033,1041.006958 922.822144,1037.584961 921.135132,1035.004639 
	C913.128296,1022.758240 904.739624,1010.761963 896.542297,998.639221 
	C895.679321,997.362854 895.179382,995.841003 894.061951,993.487427 
	C901.116089,993.487427 907.207092,993.316162 913.272461,993.634216 
	C914.462402,993.696594 915.839172,995.473022 916.643188,996.762390 
	C921.977417,1005.316223 927.178955,1013.952759 932.756165,1023.108093 
	C934.346985,1020.570557 935.649902,1018.492126 937.122498,1016.083862 
z"/>
<path fill="#2454B4" opacity="1.000000" stroke="none" 
	d="
M428.017303,1221.026855 
	C418.843079,1212.632324 416.059021,1201.610596 420.168823,1190.924072 
	C423.964142,1181.055298 433.286804,1174.255493 443.376465,1173.996460 
	C455.940277,1173.674072 464.882477,1179.284180 469.806793,1190.578125 
	C474.290405,1200.861206 470.892792,1214.156372 461.972015,1221.236694 
	C451.963318,1229.180420 438.837250,1229.178589 428.017303,1221.026855 
z"/>
<path fill="#2454B4" opacity="1.000000" stroke="none" 
	d="
M236.641022,620.131714 
	C258.147827,625.669800 263.928497,651.030823 249.469116,665.181030 
	C241.102051,673.369263 229.271378,675.263000 218.665329,669.892883 
	C208.696381,664.845337 202.678528,653.493835 204.200439,642.608032 
	C205.771286,631.372131 214.730560,621.882019 225.913010,620.101990 
	C229.273331,619.567200 232.795013,620.046021 236.641022,620.131714 
z"/>
<path fill="#0066FD" opacity="1.000000" stroke="none" 
	d="
M315.324707,997.704102 
	C306.115814,987.750793 304.433380,975.771057 310.562775,965.420593 
	C316.459991,955.462219 328.289673,950.449402 339.338531,953.532593 
	C350.163208,956.553223 356.712189,963.870728 358.446594,974.877197 
	C360.023041,984.881042 356.453674,993.355652 348.257843,999.326965 
	C339.391754,1005.786560 329.817749,1006.194275 320.106903,1001.033020 
	C318.505951,1000.182129 317.088989,998.984985 315.324707,997.704102 
z"/>
<path fill="#0066FD" opacity="1.000000" stroke="none" 
	d="
M452.101959,504.146484 
	C460.082092,494.984558 471.442474,492.201691 482.129974,496.567535 
	C492.629608,500.856628 498.803680,511.107788 497.973785,522.873962 
	C497.235168,533.345886 489.514404,542.500671 478.963196,545.415466 
	C468.649628,548.264648 457.245728,544.206482 451.148621,535.517517 
	C444.376434,525.866272 444.637421,514.663513 452.101959,504.146484 
z"/>
<path fill="#36CAD9" opacity="1.000000" stroke="none" 
	d="
M462.454987,681.248169 
	C457.657104,693.088623 448.500732,699.303406 436.936157,698.845032 
	C426.468597,698.430237 417.166718,691.190674 414.014252,681.005127 
	C410.981628,671.206909 414.229156,660.311890 422.079193,653.948730 
	C430.315491,647.272339 441.507263,646.233887 450.606354,651.301697 
	C459.727325,656.381714 464.781830,666.552429 463.330933,676.956177 
	C463.147522,678.271484 462.843689,679.570007 462.454987,681.248169 
z"/>
<path fill="#36CAD9" opacity="1.000000" stroke="none" 
	d="
M527.613831,615.432617 
	C519.017334,606.571777 516.861572,595.963806 521.396484,585.886902 
	C525.516479,576.731995 535.254883,570.786499 545.529785,571.153015 
	C555.726013,571.516724 564.769348,578.144897 568.298462,587.841003 
	C572.213379,598.596985 568.537781,610.558044 559.292664,617.147705 
	C549.617188,624.044128 537.854980,623.495056 527.613831,615.432617 
z"/>
<path fill="#F5F5F7" opacity="1.000000" stroke="none" 
	d="
M1074.789551,993.896973 
	C1080.442627,993.652039 1085.715454,993.652039 1091.495117,993.652039 
	C1091.495117,1014.698059 1091.495117,1035.417114 1091.495117,1056.594116 
	C1103.204956,1056.594116 1114.419556,1056.594116 1125.911621,1056.594116 
	C1125.911621,1061.293335 1125.911621,1065.540039 1125.911621,1070.171265 
	C1108.793579,1070.171265 1091.637817,1070.171265 1074.134888,1070.171265 
	C1074.134888,1058.950806 1074.100220,1047.992798 1074.143433,1037.035034 
	C1074.199707,1022.737183 1074.317749,1008.439636 1074.789551,993.896973 
z"/>
<path fill="#FBFBFB" opacity="1.000000" stroke="none" 
	d="
M528.990723,1044.000000 
	C528.990723,1027.033325 528.990723,1010.566528 528.990723,993.788025 
	C534.649780,993.788025 540.078735,993.788025 546.121826,993.788025 
	C546.121826,1014.535889 546.121826,1035.390137 546.121826,1056.660156 
	C557.970825,1056.660156 569.224915,1056.660156 580.741455,1056.660156 
	C580.741455,1061.326172 580.741455,1065.575317 580.741455,1070.178223 
	C563.744812,1070.178223 546.703369,1070.178223 528.990723,1070.178223 
	C528.990723,1061.643066 528.990723,1053.071533 528.990723,1044.000000 
z"/>
<path fill="#FBFBFB" opacity="1.000000" stroke="none" 
	d="
M1164.992432,1056.817871 
	C1172.472900,1056.817871 1179.452026,1056.817871 1186.719238,1056.817871 
	C1186.719238,1061.296631 1186.719238,1065.536743 1186.719238,1070.152344 
	C1169.765625,1070.152344 1152.733643,1070.152344 1135.345093,1070.152344 
	C1135.345093,1044.869629 1135.345093,1019.511414 1135.345093,993.812256 
	C1140.621826,993.812256 1146.038940,993.812256 1152.079712,993.812256 
	C1152.079712,1014.517700 1152.079712,1035.360352 1152.079712,1056.817871 
	C1156.614746,1056.817871 1160.552979,1056.817871 1164.992432,1056.817871 
z"/>
<path fill="#36CAD9" opacity="1.000000" stroke="none" 
	d="
M611.666199,556.066284 
	C622.447754,557.865601 629.438782,563.550537 632.019531,573.868408 
	C634.332153,583.114441 631.572876,591.041016 624.433655,597.232544 
	C616.634949,603.995911 605.637207,604.671143 597.009583,599.262573 
	C588.330994,593.822021 584.150574,583.463501 586.717773,573.761047 
	C589.461914,563.390137 597.753967,556.542419 608.236816,556.012024 
	C609.232849,555.961609 610.234558,556.023560 611.666199,556.066284 
z"/>
<path fill="#36CAD9" opacity="1.000000" stroke="none" 
	d="
M378.667664,721.898315 
	C383.376129,711.105713 392.515106,705.227295 402.654816,706.193115 
	C413.049805,707.183228 421.396851,714.551636 423.641144,724.718628 
	C425.795044,734.476074 421.211212,744.971069 412.353882,749.854736 
	C403.670532,754.642456 394.876709,754.322327 386.974579,748.408997 
	C378.223785,741.860718 375.432922,732.891174 378.667664,721.898315 
z"/>
<path fill="#0165FC" opacity="1.000000" stroke="none" 
	d="
M576.865112,480.350189 
	C580.975769,494.092407 574.558960,506.631195 562.053894,509.912994 
	C549.513306,513.204163 537.324585,505.529572 534.582825,492.615967 
	C532.362305,482.157593 538.576294,471.419189 549.024231,467.659698 
	C559.893555,463.748627 571.132446,468.746826 576.865112,480.350189 
z"/>
<path fill="#0066FD" opacity="1.000000" stroke="none" 
	d="
M401.366486,1065.313477 
	C393.465118,1073.213135 384.302002,1075.079956 375.162354,1070.873535 
	C367.224396,1067.220215 361.822327,1058.309082 362.461761,1049.922729 
	C363.219879,1039.979980 369.503540,1032.204712 378.905945,1029.575073 
	C387.678772,1027.121460 397.518066,1030.672363 402.703186,1038.163086 
	C408.537354,1046.591553 408.146667,1056.193848 401.366486,1065.313477 
z"/>
<path fill="#2454B4" opacity="1.000000" stroke="none" 
	d="
M533.740234,1217.838379 
	C541.708862,1209.689331 551.959656,1207.528687 560.723816,1211.921753 
	C569.326599,1216.234131 574.373169,1225.953979 572.749573,1235.084229 
	C570.402954,1248.280396 557.677551,1256.348267 544.826355,1252.787598 
	C532.525452,1249.379517 525.964539,1236.180786 530.525452,1223.822754 
	C531.262146,1221.826538 532.497498,1220.014526 533.740234,1217.838379 
z"/>
<path fill="#2454B4" opacity="1.000000" stroke="none" 
	d="
M308.743378,559.498291 
	C303.662689,569.083923 294.614990,574.113708 285.884125,572.467529 
	C275.368958,570.484924 268.135559,563.638916 267.015106,554.609070 
	C265.759705,544.491943 269.871307,535.846924 278.049591,531.408203 
	C286.050262,527.065857 296.107330,528.167725 303.184204,534.161926 
	C310.019043,539.951111 312.226715,549.596863 308.743378,559.498291 
z"/>
<path fill="#FBFBFC" opacity="1.000000" stroke="none" 
	d="
M593.348267,1070.521118 
	C591.923767,1069.766846 590.125793,1069.017822 590.121277,1068.258057 
	C589.974426,1043.483032 590.000122,1018.707031 590.000122,993.704346 
	C595.861816,993.704346 601.283508,993.704346 606.935242,993.704346 
	C606.935242,1019.302979 606.935242,1044.709717 606.935242,1070.521362 
	C602.402466,1070.521362 598.106750,1070.521362 593.348267,1070.521118 
z"/>
<path fill="#FDFDFD" opacity="1.000000" stroke="none" 
	d="
M1213.171875,1003.105652 
	C1213.171997,1025.709473 1213.171997,1047.828247 1213.171997,1070.233887 
	C1207.415283,1070.233887 1202.013062,1070.233887 1196.301025,1070.233887 
	C1196.301025,1044.782593 1196.301025,1019.401611 1196.301025,993.750610 
	C1201.734131,993.750610 1207.170410,993.750610 1213.171875,993.750610 
	C1213.171875,996.718323 1213.171875,999.669495 1213.171875,1003.105652 
z"/>
<path fill="#0165FC" opacity="1.000000" stroke="none" 
	d="
M627.891968,476.274536 
	C632.234497,467.704193 638.797241,463.600739 646.636536,464.438965 
	C654.647766,465.295502 660.235474,469.474457 662.872192,477.149567 
	C665.399292,484.505829 663.013611,492.323761 656.987366,497.346893 
	C650.925415,502.399780 641.923828,502.887299 635.160645,498.529022 
	C627.930481,493.869843 625.297729,486.082367 627.891968,476.274536 
z"/>
<path fill="#0165FC" opacity="1.000000" stroke="none" 
	d="
M453.769592,1090.038940 
	C464.214874,1091.962280 470.165009,1097.725586 471.005005,1106.349854 
	C471.851471,1115.041138 467.263916,1122.825195 459.505371,1125.861938 
	C452.646271,1128.546631 444.174164,1126.898682 439.280182,1121.564941 
	C434.009338,1115.820435 432.403137,1109.023071 435.385742,1101.728149 
	C438.605225,1093.854248 444.836456,1090.052124 453.769592,1090.038940 
z"/>
<path fill="#36CAD9" opacity="1.000000" stroke="none" 
	d="
M384.958344,775.852295 
	C395.556427,776.844238 402.546265,783.492126 403.119232,792.712341 
	C403.712921,802.265869 397.920563,810.158508 388.857178,812.145569 
	C379.936737,814.101379 371.186218,809.546631 367.772308,801.170654 
	C362.844543,789.080505 370.842682,776.988159 384.958344,775.852295 
z"/>
<path fill="#36CAD9" opacity="1.000000" stroke="none" 
	d="
M658.503906,576.905640 
	C662.355774,567.297302 669.376282,562.603027 678.109924,563.499207 
	C686.500549,564.360229 692.716125,570.099426 694.441833,578.579468 
	C696.499329,588.689148 688.957458,598.930054 678.655945,600.014954 
	C667.595825,601.179749 658.268311,593.402405 658.019836,582.742493 
	C657.977539,580.930054 658.243164,579.110413 658.503906,576.905640 
z"/>
<path fill="#2454B4" opacity="1.000000" stroke="none" 
	d="
M652.853760,1220.656738 
	C662.178467,1216.600586 671.131287,1218.756348 676.215027,1226.019653 
	C680.493652,1232.132568 679.984436,1241.891724 675.026489,1247.381348 
	C669.997620,1252.949585 663.741272,1254.824463 656.546875,1252.852417 
	C649.619507,1250.953613 645.461243,1246.026001 644.262207,1239.165161 
	C642.912292,1231.440308 645.812256,1225.164307 652.853760,1220.656738 
z"/>
<path fill="#2454B4" opacity="1.000000" stroke="none" 
	d="
M374.496582,460.006744 
	C383.830933,462.732971 388.967773,469.017426 388.917480,477.165283 
	C388.866455,485.439850 383.758484,492.033783 375.453827,494.231140 
	C368.496185,496.072083 362.658905,493.938538 357.977295,488.614990 
	C353.042389,483.003387 352.596954,476.481506 355.285492,469.928558 
	C357.902313,463.550507 363.075500,460.169586 370.080017,459.895721 
	C371.407288,459.843842 372.740356,459.941345 374.496582,460.006744 
z"/>
<path fill="#36CAD9" opacity="1.000000" stroke="none" 
	d="
M368.030975,864.865723 
	C366.905823,855.292908 371.099335,848.195801 378.796509,846.156799 
	C386.682861,844.067749 394.672668,847.975952 397.630981,855.369568 
	C400.681091,862.992615 397.329559,871.598572 389.918427,875.173645 
	C382.486694,878.758484 373.666779,876.053345 369.648987,868.903931 
	C369.004150,867.756470 368.606171,866.470215 368.030975,864.865723 
z"/>
<path fill="#36CAD9" opacity="1.000000" stroke="none" 
	d="
M732.583862,613.632690 
	C725.999756,607.826111 724.243347,601.600159 727.007751,594.745544 
	C729.473572,588.631104 735.851440,584.675903 742.471741,585.155457 
	C749.086121,585.634583 754.745789,590.261963 756.434814,596.843384 
	C758.086121,603.277344 756.197510,608.847351 751.083496,612.884033 
	C745.421997,617.352905 739.161072,617.341492 732.583862,613.632690 
z"/>
<path fill="#36CAD9" opacity="1.000000" stroke="none" 
	d="
M391.313477,937.870361 
	C385.196655,932.942322 383.529266,927.473572 386.061432,921.532654 
	C388.262970,916.367554 393.454407,913.396362 399.324829,913.941528 
	C404.914856,914.460693 409.492920,918.556274 410.584564,924.246704 
	C411.539520,929.224670 409.977020,933.501953 406.084229,936.668518 
	C401.667755,940.260986 396.734100,940.487305 391.313477,937.870361 
z"/>
<path fill="#36CAD9" opacity="1.000000" stroke="none" 
	d="
M797.075317,624.861084 
	C805.868042,625.739380 810.446533,630.664185 810.154419,638.469788 
	C809.903503,645.173889 804.768494,650.266296 797.961060,650.561890 
	C791.064575,650.861328 785.394470,646.003540 784.569153,639.088501 
	C783.698059,631.790344 788.480164,626.163696 797.075317,624.861084 
z"/>
<path fill="#0165FC" opacity="1.000000" stroke="none" 
	d="
M524.189148,1141.431641 
	C528.098572,1134.821289 532.872437,1132.314575 538.632751,1133.554565 
	C544.284058,1134.770996 548.299133,1138.980225 548.958618,1144.379150 
	C549.632751,1149.897461 547.240051,1154.810791 542.575378,1157.488159 
	C538.221741,1159.986938 532.077759,1159.590942 528.034424,1156.190308 
	C523.497253,1152.374634 522.212158,1147.468262 524.189148,1141.431641 
z"/>
<path fill="#0165FC" opacity="1.000000" stroke="none" 
	d="
M728.476807,512.726318 
	C722.435913,506.580963 721.594238,500.134796 725.835144,494.628601 
	C729.845093,489.422272 736.708862,487.921875 742.364014,491.015442 
	C748.539368,494.393585 750.882507,502.050659 747.633667,508.235962 
	C743.975708,515.200134 736.833374,516.986145 728.476807,512.726318 
z"/>
<path fill="#2454B4" opacity="1.000000" stroke="none" 
	d="
M777.644348,1217.813232 
	C770.051880,1220.652588 764.013367,1218.275391 761.906006,1211.951294 
	C760.047485,1206.373901 763.234253,1200.508789 769.150146,1198.619263 
	C773.354553,1197.276367 778.561890,1199.224609 780.910522,1203.019165 
	C784.081299,1208.141968 783.199524,1212.481812 777.644348,1217.813232 
z"/>
<path fill="#2454B4" opacity="1.000000" stroke="none" 
	d="
M474.189728,437.029327 
	C467.477753,435.533722 463.853058,431.367432 464.319458,426.132202 
	C464.796906,420.772949 468.765350,416.516815 473.711731,416.059082 
	C479.510254,415.522491 484.010681,418.866180 485.316772,424.681183 
	C486.763367,431.121948 482.197266,436.389618 474.189728,437.029327 
z"/>
<path fill="#1B2A4B" opacity="1.000000" stroke="none" 
	d="
M1078.682373,843.562866 
	C1077.505615,861.800354 1072.042480,877.598328 1057.660767,889.208679 
	C1029.989136,911.547791 973.214844,908.420410 962.068726,851.812988 
	C959.181763,837.151245 960.167786,822.620850 965.301575,808.540222 
	C973.933411,784.864868 993.231262,771.659058 1018.557678,771.840515 
	C1044.556641,772.026794 1065.539307,786.753113 1073.960083,810.717896 
	C1077.646484,821.209045 1079.011353,832.041748 1078.682373,843.562866 
z"/>
<path fill="#202F4F" opacity="1.000000" stroke="none" 
	d="
M665.001160,1048.794678 
	C664.132751,1054.665405 660.169739,1056.463867 655.410583,1056.765259 
	C650.630554,1057.067871 645.816406,1056.831909 640.587524,1056.831909 
	C640.587524,1050.648438 640.587524,1044.632080 640.587524,1037.518555 
	C646.119324,1037.956055 651.820923,1038.074829 657.404785,1038.947021 
	C662.437805,1039.733154 665.127319,1043.104614 665.001160,1048.794678 
z"/>
<path fill="#202F4F" opacity="1.000000" stroke="none" 
	d="
M657.938538,1008.808533 
	C663.856995,1014.884949 661.897705,1022.893066 654.100342,1024.756104 
	C649.821594,1025.778442 645.283203,1025.714355 640.481628,1026.176636 
	C640.481628,1019.576660 640.481628,1013.681641 640.481628,1006.588013 
	C646.319031,1007.272583 651.964050,1007.934631 657.938538,1008.808533 
z"/>
<path fill="#1B2A4B" opacity="1.000000" stroke="none" 
	d="
M877.059326,1017.268494 
	C876.771667,1026.505005 874.050720,1029.126831 865.194031,1029.141846 
	C861.242737,1029.148560 857.291443,1029.143066 853.102905,1029.143066 
	C853.102905,1022.002869 853.102905,1015.272095 853.102905,1008.058960 
	C858.433105,1008.058960 863.727966,1007.723450 868.959412,1008.155640 
	C873.942627,1008.567261 876.381775,1012.048950 877.059326,1017.268494 
z"/>
<path fill="#1B2A4B" opacity="1.000000" stroke="none" 
	d="
M728.535828,1012.768433 
	C732.069153,1023.749634 728.179321,1029.143311 717.172302,1029.146240 
	C713.532471,1029.147095 709.892639,1029.146240 705.892761,1029.146240 
	C705.892761,1022.143616 705.892761,1015.415955 705.892761,1008.155029 
	C711.298035,1008.155029 716.922485,1007.773987 722.446960,1008.351074 
	C724.527527,1008.568359 726.376221,1011.005493 728.535828,1012.768433 
z"/>
<path fill="#202F4F" opacity="1.000000" stroke="none" 
	d="
M1254.138184,1042.166748 
	C1252.182739,1042.166870 1250.706055,1042.166870 1248.378906,1042.166870 
	C1251.772583,1032.175781 1254.985229,1022.717712 1258.604614,1012.062256 
	C1262.117310,1022.599915 1265.267944,1032.051147 1268.639893,1042.166748 
	C1263.480103,1042.166748 1259.048584,1042.166748 1254.138184,1042.166748 
z"/>
<path fill="#202F4F" opacity="1.000000" stroke="none" 
	d="
M1022.303772,1030.356323 
	C1024.375854,1024.389282 1026.300049,1018.791321 1028.574097,1012.175598 
	C1032.051392,1022.603516 1035.186646,1032.005249 1038.470215,1041.852295 
	C1031.721313,1041.852295 1025.496948,1041.852295 1018.547424,1041.852295 
	C1019.777954,1038.057739 1020.966980,1034.391602 1022.303772,1030.356323 
z"/>
<path fill="#202F4F" opacity="1.000000" stroke="none" 
	d="
M798.812134,1035.161865 
	C799.557068,1037.583252 800.187988,1039.621704 800.906677,1041.943848 
	C794.196838,1041.943848 787.774170,1041.943848 780.872498,1041.943848 
	C784.164551,1032.364990 787.368530,1023.042480 790.572449,1013.719971 
	C790.916870,1013.695007 791.261230,1013.670044 791.605591,1013.645020 
	C793.969727,1020.689575 796.333862,1027.734131 798.812134,1035.161865 
z"/>
</svg>